/* XPM */
static char *blackKing1721964318[] = {
/* columns rows colors chars-per-pixel */
"60 60 201 2 ",
"   c None",
".  c black",
"X  c #010101",
"o  c #020202",
"O  c gray1",
"+  c #040404",
"@  c gray2",
"#  c #060606",
"$  c #070707",
"%  c #090909",
"&  c gray4",
"*  c #0C0C0C",
"=  c #0E0E0E",
"-  c #101010",
";  c #111111",
":  c gray7",
">  c #131313",
",  c gray8",
"<  c #151515",
"1  c #161616",
"2  c #181818",
"3  c #191919",
"4  c gray10",
"5  c #1B1B1B",
"6  c gray11",
"7  c #1D1D1D",
"8  c #1E1E1E",
"9  c gray12",
"0  c #202020",
"q  c gray13",
"w  c #222222",
"e  c #232323",
"r  c gray14",
"t  c gray15",
"y  c #272727",
"u  c #282828",
"i  c gray16",
"p  c #2A2A2A",
"a  c gray17",
"s  c #2C2C2C",
"d  c #2D2D2D",
"f  c gray18",
"g  c #2F2F2F",
"h  c gray19",
"j  c #313131",
"k  c #323232",
"l  c gray20",
"z  c #343434",
"x  c #373737",
"c  c #393939",
"v  c gray23",
"b  c #3C3C3C",
"n  c #3F3F3F",
"m  c gray26",
"M  c #464646",
"N  c gray28",
"B  c #484848",
"V  c #4B4B4B",
"C  c gray30",
"Z  c #4E4E4E",
"A  c gray31",
"S  c #505050",
"D  c #515151",
"F  c gray32",
"G  c #535353",
"H  c gray33",
"J  c #555555",
"K  c #565656",
"L  c gray34",
"P  c #585858",
"I  c gray35",
"U  c #5A5A5A",
"Y  c #5D5D5D",
"T  c #5F5F5F",
"R  c #606060",
"E  c gray38",
"W  c #626262",
"Q  c gray39",
"!  c #646464",
"~  c #656565",
"^  c #676767",
"/  c #686868",
"(  c DimGray",
")  c #6A6A6A",
"_  c gray42",
"`  c #6C6C6C",
"'  c gray43",
"]  c gray44",
"[  c #727272",
"{  c gray45",
"}  c #767676",
"|  c #777777",
" . c gray47",
".. c gray48",
"X. c #7B7B7B",
"o. c #7C7C7C",
"O. c gray49",
"+. c #7E7E7E",
"@. c gray50",
"#. c #818181",
"$. c gray51",
"%. c #838383",
"&. c #848484",
"*. c #868686",
"=. c gray53",
"-. c #888888",
";. c gray54",
":. c #8B8B8B",
">. c gray55",
",. c gray56",
"<. c #909090",
"1. c #939393",
"2. c gray58",
"3. c #959595",
"4. c gray59",
"5. c #979797",
"6. c #989898",
"7. c gray60",
"8. c #9A9A9A",
"9. c #9B9B9B",
"0. c gray61",
"q. c #9D9D9D",
"w. c gray62",
"e. c #9F9F9F",
"r. c #A0A0A0",
"t. c gray63",
"y. c #A2A2A2",
"u. c gray64",
"i. c #A5A5A5",
"p. c gray65",
"a. c #A7A7A7",
"s. c #A9A9A9",
"d. c #ACACAC",
"f. c gray68",
"g. c #AEAEAE",
"h. c #AFAFAF",
"j. c gray69",
"k. c #B1B1B1",
"l. c #B2B2B2",
"z. c #B4B4B4",
"x. c gray71",
"c. c #B7B7B7",
"v. c gray72",
"b. c #B9B9B9",
"n. c #BBBBBB",
"m. c #BCBCBC",
"M. c gray74",
"N. c gray",
"B. c gray75",
"V. c #C0C0C0",
"C. c #C1C1C1",
"Z. c gray76",
"A. c #C3C3C3",
"S. c #C6C6C6",
"D. c gray78",
"F. c #C8C8C8",
"G. c #CACACA",
"H. c #CBCBCB",
"J. c gray80",
"K. c #CDCDCD",
"L. c #CECECE",
"P. c gray82",
"I. c #D2D2D2",
"U. c LightGray",
"Y. c gray83",
"T. c gray84",
"R. c #D7D7D7",
"E. c gray85",
"W. c #DADADA",
"Q. c gray86",
"!. c gainsboro",
"~. c #DDDDDD",
"^. c gray87",
"/. c #DFDFDF",
"(. c gray88",
"). c #E1E1E1",
"_. c #E2E2E2",
"`. c gray89",
"'. c gray90",
"]. c #E6E6E6",
"[. c #E7E7E7",
"{. c #E9E9E9",
"}. c #EAEAEA",
"|. c gray92",
" X c #ECECEC",
".X c gray93",
"XX c #EEEEEE",
"oX c #EFEFEF",
"OX c gray94",
"+X c gray95",
"@X c #F3F3F3",
"#X c gray96",
"$X c #F6F6F6",
"%X c gray97",
"&X c #F8F8F8",
"*X c #F9F9F9",
"=X c #FBFBFB",
"-X c gray99",
";X c #FDFDFD",
":X c #FEFEFE",
">X c white",
/* pixels */
"                                                                                                                        ",
"                                                                                                                        ",
"                                                                                                                        ",
"                                                                                                                        ",
"                                                                                                                        ",
"                                                                                                                        ",
"                                                                                                                        ",
"                                                          . .                                                           ",
"                                                          . .                                                           ",
"                                                      . . . . . . .                                                     ",
"                                                    . . . . . . . . .                                                   ",
"                                                          . .                                                           ",
"                                                          . .                                                           ",
"                                                          . .                                                           ",
"                                                          . .                                                           ",
"                                                        . . . . .                                                       ",
"                                                      . . . . . . .                                                     ",
"                                                    . . . . . . . . .                                                   ",
"                                                  . . . . . . . . . .                                                   ",
"                                                  . . . . . . . . . . .                                                 ",
"                          . . . . . . .           . . . . . . . . . . .       . . . . . . . .                           ",
"                      . . H -.e.h.e./ j + . .     . . . . . . . . . . .   . . . p Q 8.k.e.,.Q % .                       ",
"                    . Q W.>X>X>X>X>X>X>XoX-.3 .   . . . . . . . . . . . . % / ).>X>X>X>X>X>X>X}.$.-                     ",
"                  . <.>X>X/. .Q A / e.P.>X>X*Xe.1 . . . . . . . . . . . / [.>X>X).a.' A Q } S.>X>X/.7                   ",
"                  Q >X*XT . . . . . . . z a.*X>X[.m . . . . . . . . - c.>X>XH.S . . . . . . . v L.>XW.3                 ",
"                p *X>XT . . . . . . . . . . w S.>X>X$.. . . . . . j ).>X}.A . . . . . . . . . . - P.>XH..               ",
"                +.>Xy.. . . . . . . . . . . . . +.>X>X,.. . . . t }.>XS.7 . . . . . . . . . . . . 1 }.>Xp               ",
"              . m.>XS . . . . . . . . . . . . . . m #X>X .. . - T.>Xn.+ . . . . . . . . . . . . . . s.>XQ               ",
"              . *X>X- . . . . . . . . . . . . . . . A >X>XU . m.>XP.* . . . . . . . . . . . . . . . { >X3.              ",
"              . }.>X1 . . . . . . . . . . . . . . . . / >X}.^ >X[.7 . . . . . . . . . . . . . . . . $.>X&.              ",
"              . H.>Xj . . . . . . . . . . . . . . . . . S.>X>X>XQ . . . . . . . . . . . . . . . . . c.>XH               ",
"              . e.>X<.. . . . . . . . . . . . . . . . . v >X>XT.+ . . . . . . . . . . . . . . . . t >X*X7               ",
"                g >X#X3 . . . . . . . . . . . . . . . . . V.>X^ . . . . . . . . . . . . . . . . . k.>X8..               ",
"                . h.>XS.+ . . . . . . . . . . . . . . . . s.>XS . . . . . . . . . . . . . . . .  .>XOX3                 ",
"                  1 /.>Xc.- . . . . . . . . . . . . . . . s.>XH . . . . . . . . . . . . . . . / >X>XH                   ",
"                    g [.>X/.j . . . . . . . . . . + 3 z A y.oXU w % . . . . . . . . . . . % y.>X>X' .                   ",
"                      7 S.>X#X{ + . . + m &.c.L.}.>X>X>X>X>X>X>X>X>XoXT.n.8.U 1 . . . . p P.>XOXU .                     ",
"                        % 3.>X>XT.S c.#X>X>X>X>X>X#X).S.h.3.a.m.T.OX>X>X>X>X>X>XL.} 7 $.#X>XP.p                         ",
"                          . N ).#X>X>X>XH.$.N p - . . . . . . . . . % t n / k.OX>X>X>X>X>X8.*                           ",
"                            H >X>X/.' - . . . . . . . . . . . . . . . . . . . % A n.>X>Xy..                             ",
"                              { A . . . . . * t n U { -.a.n.h.<. .T N g 1 . . . . . g } g                               ",
"                              . . . - H 8.).>X>X>X>X>X>X>X>X>X>X>X>X>X>X>X#Xk./ t . . . .                               ",
"                              . j y.*X>X>X>X#XW.V.s.,.} T N H ' &.y.n.P.oX>X>X>X>XS.H + .                               ",
"                              m.>X>X>Xm. .j . . . . . . . . . . . . . . . 3 Q s.oX>X>X).S                               ",
"                              >XoX-.7 . . . . . . . . . . 1 + . . . . . . . . . % ^ P.>X8.                              ",
"                              w % . . . . z ^ +.3.k.H.[.*X>X>X}.P.n.y.&.' V * . . . . w %                               ",
"                              . . % Q h.OX>X>X>X>X>X>X>X>XoX*X>X>X>X>X>X>X>X>XV.+.w . . .                               ",
"                              7 &.oX>X>X>XW.y.&./ S z 7 % . . 1 g V Q  .<.S.*X>X>X*Xh.m .                               ",
"                              #X>X>XV.^ w . . . . . . . . . . . . . . . . . * S y.#X>X>X-.                              ",
"                              L.e.j . . . . . . . . . . . . . . . . . . . . . . . 1 +.H.e.                              ",
"                                  . . . . . . . . . . . . . . . . . . . . . . . . . .                                   ",
"                                      . . . . . . . . . . . . . . . . . . . . . .                                       ",
"                                            . . . . . . . . . . . . . . .                                               ",
"                                                                                                                        ",
"                                                                                                                        ",
"                                                                                                                        ",
"                                                                                                                        ",
"                                                                                                                        ",
"                                                                                                                        ",
"                                                                                                                        "
};
