/* XPM */
static char *blackBishop1721964318[] = {
/* columns rows colors chars-per-pixel */
"60 60 50 1 ",
"  c None",
". c black",
"X c #010101",
"o c #020202",
"O c #040404",
"+ c #060606",
"@ c gray3",
"# c #0E0E0E",
"$ c #131313",
"% c gray9",
"& c #1E1E1E",
"* c gray12",
"= c #202020",
"- c gray15",
"; c #3A3A3A",
": c #3C3C3C",
"> c gray26",
", c #4B4B4B",
"< c #515151",
"1 c #535353",
"2 c gray34",
"3 c #585858",
"4 c gray36",
"5 c #606060",
"6 c gray45",
"7 c #747474",
"8 c gray46",
"9 c #767676",
"0 c #777777",
"q c #7B7B7B",
"w c #898989",
"e c #959595",
"r c #A0A0A0",
"t c gray65",
"y c gray66",
"u c #ACACAC",
"i c #B7B7B7",
"p c #B9B9B9",
"a c #DADADA",
"s c #DFDFDF",
"d c gray88",
"f c #E9E9E9",
"g c #ECECEC",
"h c #F4F4F4",
"j c #F6F6F6",
"k c gray97",
"l c #F8F8F8",
"z c gray99",
"x c #FEFEFE",
"c c white",
/* pixels */
"                                                            ",
"                                                            ",
"                                                            ",
"                                                            ",
"                                                            ",
"                                                            ",
"                                                            ",
"                            ....                            ",
"                           ......                           ",
"                          ........                          ",
"                          ........                          ",
"                          ........                          ",
"                          ........                          ",
"                           .......                          ",
"                           ......                           ",
"                          .........                         ",
"                        ............                        ",
"                       ..............                       ",
"                      .................                     ",
"                     ...................                    ",
"                    .........wi.........                    ",
"                   ..........sc=.........                   ",
"                   ..........dc=O.........                  ",
"                  ........8rrhcuee$.......                  ",
"                  .......$cccccccc<.......                  ",
"                  ........:54gc85,.........                 ",
"                  ...........dc=...........                 ",
"                  ...........ac&...........                 ",
"                  ...........<q............                 ",
"                  .........................                 ",
"                  ........................                  ",
"                  ........................                  ",
"                   .......................                  ",
"                    .....................                   ",
"                    ..;fllllllllllllh6..                    ",
"                     .>ccccccccccccccq.                     ",
"                     ..O@@@@@@@@@@@@O...                    ",
"                    ....................                    ",
"                    .....................                   ",
"                   4tyyyyyyyyyyyyyyyyyyy8                   ",
"                   pccccccccccccccccccccl                   ",
"                   $23333333333333333333-                   ",
"                   ......................                   ",
"                   ......................                   ",
"                     ...................                    ",
"                       ..............                       ",
"                        .............                       ",
"           ......................................           ",
"         .........................................          ",
"        ............................................        ",
"       ..............................................       ",
"       ......................  ......................       ",
"         ....                                  .....        ",
"                                                            ",
"                                                            ",
"                                                            ",
"                                                            ",
"                                                            ",
"                                                            ",
"                                                            "
};
