/* XPM */
static char *blackKnight1721964318[] = {
/* columns rows colors chars-per-pixel */
"60 60 103 2 ",
"   c None",
".  c black",
"X  c #010101",
"o  c gray1",
"O  c #040404",
"+  c #060606",
"@  c #070707",
"#  c #090909",
"$  c #0B0B0B",
"%  c gray5",
"&  c #0E0E0E",
"*  c gray6",
"=  c #101010",
"-  c #111111",
";  c gray7",
":  c #151515",
">  c gray9",
",  c #191919",
"<  c gray11",
"1  c #1D1D1D",
"2  c #202020",
"3  c #222222",
"4  c #232323",
"5  c gray14",
"6  c #252525",
"7  c #282828",
"8  c gray20",
"9  c #393939",
"0  c #3A3A3A",
"q  c gray24",
"w  c #3E3E3E",
"e  c gray25",
"r  c gray27",
"t  c #484848",
"y  c #4B4B4B",
"u  c gray31",
"i  c #515151",
"p  c gray33",
"a  c #555555",
"s  c #565656",
"d  c gray34",
"f  c #585858",
"g  c gray35",
"h  c #5B5B5B",
"j  c #626262",
"k  c #646464",
"l  c #6A6A6A",
"z  c gray42",
"x  c gray43",
"c  c #717171",
"v  c #727272",
"b  c gray45",
"n  c gray46",
"m  c gray47",
"M  c #808080",
"N  c #838383",
"B  c gray55",
"V  c #8D8D8D",
"C  c #909090",
"Z  c #929292",
"A  c #939393",
"S  c #959595",
"D  c #989898",
"F  c gray61",
"G  c #9D9D9D",
"H  c gray62",
"J  c #9F9F9F",
"K  c #A4A4A4",
"L  c #A5A5A5",
"P  c #ACACAC",
"I  c #B2B2B2",
"U  c gray70",
"Y  c #B7B7B7",
"T  c #B9B9B9",
"R  c gray75",
"E  c #C0C0C0",
"W  c gray78",
"Q  c gray79",
"!  c #CECECE",
"~  c LightGray",
"^  c #D7D7D7",
"/  c gray85",
"(  c gray88",
")  c #E1E1E1",
"_  c #E2E2E2",
"`  c gray89",
"'  c #E4E4E4",
"]  c gray90",
"[  c #E6E6E6",
"{  c #E7E7E7",
"}  c gray91",
"|  c #EAEAEA",
" . c gray93",
".. c #EEEEEE",
"X. c #EFEFEF",
"o. c #F4F4F4",
"O. c gray96",
"+. c #F6F6F6",
"@. c #F8F8F8",
"#. c #FBFBFB",
"$. c gray99",
"%. c #FEFEFE",
"&. c white",
/* pixels */
"                                                                                                                        ",
"                                                                                                                        ",
"                                                                                                                        ",
"                                                                                                                        ",
"                                                                                                                        ",
"                                                                                                                        ",
"                                                                                                                        ",
"                                                                                                                        ",
"                                      . .               . .                                                             ",
"                                    . . . .           . . . .                                                           ",
"                                    . . . . .       . . . . .                                                           ",
"                                    . . . . .     . . . . . .                                                           ",
"                                    . . . . . . . . . . . . . . . . .                                                   ",
"                                    . . . . . . . . . . . . . . . z J a - .                                             ",
"                                    . . . . . . . . . . . . . . . ! &.&.&.R w .                                         ",
"                                    . . . . . . . . . . . . . . . r K +.&.&.&.P 2                                       ",
"                                  . . . . . . . . . . . . . . . . . . - n  .&.&.@.i .                                   ",
"                                . . . . z A . . . . . . . . . . . . . . . , K &.&.&.j .                                 ",
"                              . . . . A &.&.2 . . . . . . . . . . . . . . . . a &.&.&.v .                               ",
"                              . . . a &.&.+.. . . . . . . . . . . . . . . . . . a @.&.&.y .                             ",
"                            . . . . A &.&.Y . . . . . . . . . . . . . . . . . . . f &.&.( -                             ",
"                            . . . . T &.~ < . . . . . . . . . . . . . . . . . . . . J &.&.J .                           ",
"                          . . . . . y S * . . . . . . . . . . . . . . . . . . . . . - | &.&.y .                         ",
"                          . . . . . . . . . . . . . . . . . . . . . . . . . . . . . . a &.&.W .                         ",
"                        . . . . . . . . . . . . . . . . . . . . . . . . . . . . . . . . R &.&.8 .                       ",
"                      . . . . . . . . . . . . . . . . . . . . . . . . . . . . . . . . . a &.&.D .                       ",
"                      . . . . . . . . . . . . . . . . . . . . . . . . . . . . . . . . . + [ &.+.- .                     ",
"                    . . . . . . . . . . . . . . . . . . . . . . . . . . . . . . . . . . . M &.&.x .                     ",
"                    . . . . . . . . . . . . . . . . . . . . . . . . . . . . . . . . . . . < &.&.E .                     ",
"                  . . . . . . . . . . . . . . . . . . . . . . . . . . . . . . . . . . . . . Q &.+.+                     ",
"                  . . . . . . . . . . . . . . . . . . . . .   . . . . . . . . . . . . . . . V &.&.0 .                   ",
"                  . . . * # . . . . . . . . . . . . . . .   . . . . . . . . . . . . . . . . f &.&.n .                   ",
"                . . . i &. .2 . . . . . . . . . . . .       . . . . . . . . . . . . . . . . 2 &.&.U .                   ",
"                . . . M &.&.e . . . . . . . . . . .         . . . . . . . . . . . . . . . . . | &. ..                   ",
"                . . . 5 P D # . . . . . . . . . .           . . . . . . . . . . . . . . . . . U &.&.2 .                 ",
"                . . . . . . . . . . . . . . . .           . . . . . . . . . . . . . . . . . . V &.&.e .                 ",
"                . . . . . . . . . . . . . .               . . . . . . . . . . . . . . . . . . m &.&.f .                 ",
"                . . . . . . . . . . . . .               . . . . . . . . . . . . . . . . . . . k &.&.v .                 ",
"                  . . . . . . . . . . .               . . . . . . . . . . . . . . . . . . . . u &.&.V .                 ",
"                    . . . . . . . . .               . . . . . . . . . . . . . . . . . . . . . 0 &.&.K .                 ",
"                            . . . . .             . . . . . . . . . . . . . . . . . . . . . . 5 &.&.R .                 ",
"                                .               . . . . . . . . . . . . . . . . . . . . . . . - &.&./ .                 ",
"                                                . . . . . . . . . . . . . . . . . . . . . . . . &.&.| .                 ",
"                                              . . . . . . . . . . . . . . . . . . . . . . . . + &.&.[ .                 ",
"                                            . . . . . . . . . . . . . . . . . . . . . . . . . + &.&.[ .                 ",
"                                          . . . . . . . . . . . . . . . . . . . . . . . . . . * &.&.( .                 ",
"                                          . . . . . . . . . . . . . . . . . . . . . . . . . . * &.&.[ .                 ",
"                                        . . . . . . . . . . . . . . . . . . . . . . . . . . . - &.&.[ .                 ",
"                                        . . . . . . . . . . . . . . . . . . . . . . . . . . . : &.&.( .                 ",
"                                        . . . . . . . . . . . . . . . . . . . . . . . . . . . , &.&.( . .               ",
"                                        . . . . . . . . . . . . . . . . . . . . . . . . . . . < &.&.( . .               ",
"                                        . . . . . . . . . . . . . . . . . . . . . . . . . . . 7 &.&.^ .                 ",
"                                                                                                                        ",
"                                                                                                                        ",
"                                                                                                                        ",
"                                                                                                                        ",
"                                                                                                                        ",
"                                                                                                                        ",
"                                                                                                                        ",
"                                                                                                                        "
};
