/* XPM */
static char *blackRook1721964319[] = {
/* columns rows colors chars-per-pixel */
"60 60 32 1 ",
"  c None",
". c black",
"X c #010101",
"o c #020202",
"O c #101010",
"+ c gray8",
"@ c gray9",
"# c #232323",
"$ c gray16",
"% c gray20",
"& c gray21",
"* c gray24",
"= c gray25",
"- c #505050",
"; c gray34",
": c #585858",
"> c #6D6D6D",
", c #777777",
"< c #7C7C7C",
"1 c #909090",
"2 c #959595",
"3 c gray59",
"4 c gray62",
"5 c gray64",
"6 c #A4A4A4",
"7 c gray66",
"8 c #AEAEAE",
"9 c gray69",
"0 c #C0C0C0",
"q c #E7E7E7",
"w c #E9E9E9",
"e c white",
/* pixels */
"                                                            ",
"                                                            ",
"                                                            ",
"                                                            ",
"                                                            ",
"                                                            ",
"                                                            ",
"                                                            ",
"                                                            ",
"                                                            ",
"               .......     ........      ......             ",
"               .......     ........     .......             ",
"               .......    ..........    .......             ",
"               ................................             ",
"               ................................             ",
"               ................................             ",
"               ................................             ",
"               0eeeeeeeeeeeeeeeeeeeeeeeeeeeeeew.            ",
"               &------------------------------*             ",
"                ..............................              ",
"                  .<99999999999999999999992..               ",
"                   ,77777777777777777777771.                ",
"                   ........................                 ",
"                   ........................                 ",
"                   ........................                 ",
"                   ........................                 ",
"                   ........................                 ",
"                   ........................                 ",
"                   ........................                 ",
"                   ........................                 ",
"                   ........................                 ",
"                   ........................                 ",
"                   ........................                 ",
"                   ........................                 ",
"                   ........................                 ",
"                   ........................                 ",
"                   ........................                 ",
"                   %::::::::::::::::::::::=                 ",
"                  .0eeeeeeeeeeeeeeeeeeeeeeq.                ",
"                  ..........................                ",
"                 @59999999999999999999999998$               ",
"                .O46777777777777777777777775#.              ",
"                ..............................              ",
"                ..............................              ",
"                ..............................              ",
"                @;:::::::::::::::::::::::::::#              ",
"             ...>eeeeeeeeeeeeeeeeeeeeeeeeeeee2....          ",
"            ......................................          ",
"            ......................................          ",
"            ......................................          ",
"            ......................................          ",
"             .....................................          ",
"                                                            ",
"                                                            ",
"                                                            ",
"                                                            ",
"                                                            ",
"                                                            ",
"                                                            ",
"                                                            "
};
