/* XPM */
static char *whiteQueen1721964319[] = {
/* columns rows colors chars-per-pixel */
"60 60 193 2 ",
"   c None",
".  c black",
"X  c #010101",
"o  c #020202",
"O  c gray1",
"+  c #040404",
"@  c gray2",
"#  c #060606",
"$  c #070707",
"%  c #090909",
"&  c gray4",
"*  c #0B0B0B",
"=  c gray5",
"-  c #0E0E0E",
";  c gray6",
":  c #101010",
">  c gray7",
",  c gray8",
"<  c #151515",
"1  c #161616",
"2  c gray9",
"3  c #181818",
"4  c #191919",
"5  c gray10",
"6  c #1B1B1B",
"7  c gray11",
"8  c #1D1D1D",
"9  c #1E1E1E",
"0  c gray12",
"q  c #202020",
"w  c gray13",
"e  c #222222",
"r  c gray14",
"t  c #252525",
"y  c gray15",
"u  c #272727",
"i  c #282828",
"p  c #2A2A2A",
"a  c gray17",
"s  c #2C2C2C",
"d  c gray18",
"f  c #2F2F2F",
"g  c #323232",
"h  c #353535",
"j  c gray21",
"k  c #373737",
"l  c gray22",
"z  c #3A3A3A",
"x  c gray23",
"c  c #3E3E3E",
"v  c #3F3F3F",
"b  c gray25",
"n  c #414141",
"m  c #434343",
"M  c #444444",
"N  c gray27",
"B  c #464646",
"V  c gray28",
"C  c #484848",
"Z  c gray29",
"A  c #4B4B4B",
"S  c #4C4C4C",
"D  c gray30",
"F  c #4E4E4E",
"G  c gray31",
"H  c #505050",
"J  c #515151",
"K  c gray32",
"L  c gray33",
"P  c #555555",
"I  c #565656",
"U  c #5A5A5A",
"Y  c gray36",
"T  c #5D5D5D",
"R  c gray37",
"E  c #5F5F5F",
"W  c #606060",
"Q  c gray38",
"!  c #626262",
"~  c #646464",
"^  c #656565",
"/  c gray40",
"(  c #676767",
")  c #686868",
"_  c DimGray",
"`  c gray42",
"'  c #6C6C6C",
"]  c #6F6F6F",
"[  c gray44",
"{  c #717171",
"}  c #727272",
"|  c gray45",
" . c #767676",
".. c #777777",
"X. c gray47",
"o. c gray48",
"O. c #7B7B7B",
"+. c #7C7C7C",
"@. c gray49",
"#. c #7E7E7E",
"$. c gray50",
"%. c #818181",
"&. c #838383",
"*. c gray52",
"=. c gray53",
"-. c #888888",
";. c #898989",
":. c gray54",
">. c #8B8B8B",
",. c gray55",
"<. c #8D8D8D",
"1. c #8E8E8E",
"2. c gray56",
"3. c #909090",
"4. c gray57",
"5. c #929292",
"6. c #939393",
"7. c gray58",
"8. c gray59",
"9. c #979797",
"0. c #989898",
"q. c gray60",
"w. c #9A9A9A",
"e. c #9B9B9B",
"r. c gray62",
"t. c #9F9F9F",
"y. c gray63",
"u. c #A2A2A2",
"i. c #A4A4A4",
"p. c #A5A5A5",
"a. c gray65",
"s. c #A7A7A7",
"d. c #A9A9A9",
"f. c #AAAAAA",
"g. c gray67",
"h. c #ACACAC",
"j. c gray68",
"k. c #AEAEAE",
"l. c #B1B1B1",
"z. c #B2B2B2",
"x. c gray70",
"c. c #B4B4B4",
"v. c gray71",
"b. c #B6B6B6",
"n. c gray72",
"m. c #B9B9B9",
"M. c #BBBBBB",
"N. c #BCBCBC",
"B. c gray",
"V. c gray75",
"C. c #C0C0C0",
"Z. c #C1C1C1",
"A. c gray76",
"S. c #C3C3C3",
"D. c gray77",
"F. c #C5C5C5",
"G. c #C6C6C6",
"H. c gray78",
"J. c #C8C8C8",
"K. c gray79",
"L. c #CBCBCB",
"P. c gray80",
"I. c #CDCDCD",
"U. c gray82",
"Y. c #D2D2D2",
"T. c #D5D5D5",
"R. c #D7D7D7",
"E. c gray85",
"W. c #DADADA",
"Q. c #DDDDDD",
"!. c gray87",
"~. c #E2E2E2",
"^. c gray89",
"/. c #E4E4E4",
"(. c gray90",
"). c #E6E6E6",
"_. c #E9E9E9",
"`. c #EAEAEA",
"'. c gray92",
"]. c gray93",
"[. c #EEEEEE",
"{. c #EFEFEF",
"}. c gray95",
"|. c #F3F3F3",
" X c #F4F4F4",
".X c gray96",
"XX c #F6F6F6",
"oX c #F8F8F8",
"OX c gray98",
"+X c #FBFBFB",
"@X c #FDFDFD",
"#X c #FEFEFE",
"$X c white",
/* pixels */
"                                                                                                                        ",
"                                                                                                                        ",
"                                                                                                                        ",
"                                                                                                                        ",
"                                                                                                                        ",
"                                                                                                                        ",
"                                                                                                                        ",
"                                                          . . .                                                         ",
"                                    . .               . . . @ . .                                                       ",
"                                . . . . . .           . . z.|.R . .             . . .                                   ",
"                                . - :.:.* .           . r $X$XD.. .           . . @ . . .                               ",
"                              . . { $X$X_ . .         . . g.[.U . .         . . ( XXg.. .                               ",
"                                . Z $X$XM .           . . . . . .           . . L.$X$X9 .                               ",
"              . . .             . . q q . .               . . .             . . R [.s.. .             . . .             ",
"          . . . @ . .             . . . .                 . . .               . . . . . .         . . . @ . .           ",
"          . . z.|.R . .             . .                   . . .                 . . .             . . z.|.R . .         ",
"          . r $X$XD.. .             . . .                 . . .                 . . .             . r $X$XD.. .         ",
"          . . g.[.U . .             . . .               . . . .                 . . .             . . j.[.U . .         ",
"          . . . . . .               . . . .             . . 9 .               . . . .             . . . . . .           ",
"              . . . .               . . . .             . . %.. .             . . . .               . . . .             ",
"                  . . .             . . M .             . q D.. .           . . q . .             . . .                 ",
"                  . . .             . . j.. .           . I XX. .           . . %.. .           . . . .                 ",
"                  . . . .           . . +X1 .         . . :.$Xp .           . M g.. .           . . .                   ",
"                  . . @ . .         . . $X{ . .       . . N.$XR .         . . j.s.. .         . . . .                   ",
"                    . F * .         . . $XR.. .       . . [.$X4.. .       . 6 +Xs.. .       . . x 6 .                   ",
"                    . M :.. .       . . $X$Xx .       . q $X$XD.. .     . . #.$Xs.. .       . * D.. .                   ",
"                    . 6 +Xf . .     . . $X$Xr.. .     . I $X$XXX. .     . . /.$Xs.. .     . . %.D.. .                   ",
"                    . . [.L.. .     . . $X$XXX- .   . . =.$X$X$Xf .     . F $X$Xs.. .   . . p +Xw.. .                   ",
"                    . . D.$X{ . .   . . $X$X$X( . . . . M.$X$X$XQ .   . . b.$X$Xs.. .   . . L.$X] .                     ",
"                    . . w.$XXX9 .   . . $X$X$XL.. . . . [.$X$X$X4.. . . q $X$X$Xs.. . . . _ $X$Xx .                     ",
"                      . ] $X$Xb.. . . . $X$X$X$Xf . . q $X$X$X$XD.. . . =.$X$X$Xs.. . . 9 |.$X$X6 .                     ",
"                      . M $X$X$XU . . . $X$X$X$X4.. . I $X$X$X$XXX. . @ '.$X$X$Xs.. . . z.$X$X'.. .                     ",
"                      . 6 $X$X$X'.: . . $X$X+X/.D.@ . K 4.%. .O.%.1 . j D.W.[.+Xs.. . I $X$X$XC.. .                     ",
"                      . . /.C.<.Q 9 . . @ . . . . . . . . . . . . . . . . . . . . . . f R :.D.4.. .                     ",
"                      . . . . . . . . . . . @ - 6 r f x M F I Z m j p q 1 * . . . . . . . . . . .                       ",
"                      . . . 6 x R #.r.C.~.+X$X$X$X$X$X$X$X$X$X$X$X$X$X$X$X$X$X|.R.z.4.{ F f - . .                       ",
"                        . m $X$X$X$X$X$X$X$X$X$X$X$X$X$X$X$X$X$X$X$X$X$X$X$X$X$X$X$X$X$X$X$XW.@ .                       ",
"                        . . O.$X$X$X$X$X$X$X$X$X$X$X$X$X$X$X$X$X$X$X$X$X$X$X$X$X$X$X$X$X$X|.f . .                       ",
"                          . . g.$X$X$X$XQ.C.M.z.g.y.w.7.<.=.%.:.<.7.y.s.g.b.M.L.'.$X$X$X$XK . .                         ",
"                            . @ F x 9 . . . . . . . . . . . . . . . . . . . . . . * p Z g . .                           ",
"                            . . . . . . 9 x M F K R ( _ { O.#. .] _ Q U K Z m x 1 . . . . .                             ",
"                              . . { ~.+X$X$X$X$X$X$X$X$X$X$X$X$X$X$X$X$X$X$X$X$X$XXXR.p . .                             ",
"                                . K $X$X$X$X$X$X$X$X$X$X$X$X$X$X$X$X$X$X$X$X$X$X$X$X|.. .                               ",
"                                . _ /.L.g.<.{ Q U K M m j f p g x m Z K R ( O.w.b.U.[.: .                               ",
"                              . . . . . . . . . . . . . . . . . . . . . . . . . . . . @ .                               ",
"                              . . . 1 g F ] :.w.s.g.b.N.L.U.R.I.D.N.z.g.y.7.%.Q M r * . . .                             ",
"                            . . 4.XX$X$X$X$X$X$X$X$X$X$X$X$X$X$X$X$X$X$X$X$X$X$X$X$X$X/.x . .                           ",
"                            . Q $X$X$X$X$X$X$X$X$X$X$X$X$X$X$X$X$X$X$X$X$X$X$X$X$X$X$X$Xj.. .                           ",
"                          . . j.$X$X$X$X$X$X$X$X$X$X$X$X$X$X$X$X$X$X$X$X$X$X$X$X$X$X$X$Xb.. .                           ",
"                          . 9 +X$X$X$X$X$X$X$X$X$X$X$X$X$X$X$X$X$X$X$X$X$X$X$X$X$X$X$X$X+Xr .                           ",
"                          . 9 I.XX$X$X$X$X$X$X$X$X$X$X$X$X$X$X$X$X$X$X$X$X$X$X$X$X$X$X$X'.I .                           ",
"                          . . . . : p M Q O.4.w.y.s.z.M.C.L.I.D.N.b.j.s.r.7.<.{ I x q @ . . .                           ",
"                            . . . . . . . . . . . . . . . . . . . . . . . . . . . . . . . .                             ",
"                                            . . . . . . . . . . . . . . . . .                                           ",
"                                                                                                                        ",
"                                                                                                                        ",
"                                                                                                                        ",
"                                                                                                                        ",
"                                                                                                                        ",
"                                                                                                                        "
};
