/* XPM */
static char *whiteRook1721964320[] = {
/* columns rows colors chars-per-pixel */
"60 60 45 1 ",
"  c None",
". c black",
"X c #010101",
"o c #020202",
"O c gray1",
"+ c #070707",
"@ c gray4",
"# c #0E0E0E",
"$ c #131313",
"% c gray9",
"& c #1B1B1B",
"* c gray11",
"= c #1E1E1E",
"- c #272727",
"; c #323232",
": c #373737",
"> c #3F3F3F",
", c #414141",
"< c gray26",
"1 c #464646",
"2 c #4B4B4B",
"3 c #4C4C4C",
"4 c gray31",
"5 c gray32",
"6 c gray34",
"7 c #585858",
"8 c gray35",
"9 c gray36",
"0 c #5F5F5F",
"q c #676767",
"w c #6D6D6D",
"e c #777777",
"r c gray64",
"t c #A7A7A7",
"y c gray69",
"u c #B9B9B9",
"i c #CBCBCB",
"p c #D7D7D7",
"a c gray86",
"s c #E7E7E7",
"d c #EAEAEA",
"f c #EFEFEF",
"g c gray94",
"h c gray97",
"j c white",
/* pixels */
"                                                            ",
"                                                            ",
"                                                            ",
"                                                            ",
"                                                            ",
"                                                            ",
"                                                            ",
"                                                            ",
"                                                            ",
"                                                            ",
"               .......     ........      ......             ",
"               .......     ........     .......             ",
"               .>jjj%.    ..>jjjjq..    ..djjq.             ",
"               .>jjj-.......4jjjje.......Ofjjq.             ",
"               .>jjjp8666660djjjjhw666666ujjjq.             ",
"               .>jjjjjjjjjjjjjjjjjjjjjjjjjjjjq.             ",
"               .-tttttttttttttttttttttttttttt,.             ",
"               .................................            ",
"               ..@26666666666666666666666665$..             ",
"                ..*ajjjjjjjjjjjjjjjjjjjjjjg:..              ",
"                 ..*rttttttttttttttttttttt:..               ",
"                  .#,886686886686886686881%.                ",
"                   .>jjjjjjjjjjjjjjjjjjjjq.                 ",
"                   .>jjjjjjjjjjjjjjjjjjjjq.                 ",
"                   .>jjjjjjjjjjjjjjjjjjjjq.                 ",
"                   .>jjjjjjjjjjjjjjjjjjjjq.                 ",
"                   .>jjjjjjjjjjjjjjjjjjjjq.                 ",
"                   .>jjjjjjjjjjjjjjjjjjjjq.                 ",
"                   .>jjjjjjjjjjjjjjjjjjjjq.                 ",
"                   .>jjjjjjjjjjjjjjjjjjjjq.                 ",
"                   .>jjjjjjjjjjjjjjjjjjjjq.                 ",
"                   .>jjjjjjjjjjjjjjjjjjjjq.                 ",
"                   .,jjjjjjjjjjjjjjjjjjjjq.                 ",
"                   .>jjjjjjjjjjjjjjjjjjjjq.                 ",
"                   .>jjjjjjjjjjjjjjjjjjjjq.                 ",
"                   .>jjjjjjjjjjjjjjjjjjjjq.                 ",
"                   .>jjjjjjjjjjjjjjjjjjjjq.                 ",
"                   .#44444444444444444444&.                 ",
"                  ..,yyyyyyyyyyyyyyyyyyyy0..                ",
"                  ..ijjjjjjjjjjjjjjjjjjjjs#.                ",
"                 ..;tttttttttttttttttttttt4..               ",
"                ..............................              ",
"                ..*******-**-&***-**-&******O.              ",
"                ..djjjjjjjjjjjjjjjjjjjjjjjjj&.              ",
"                ..sjjjjjjjjjjjjjjjjjjjjjjjjj%.              ",
"                ..sjjjjjjjjjjjjjjjjjjjjjjjjj%.              ",
"             .....................................          ",
"            ......................................          ",
"            ..sjjjjjjjjjjjjjjjjjjjjjjjjjjjjjjjjj%.          ",
"            ..sjjjjjjjjjjjjjjjjjjjjjjjjjjjjjjjjj%.          ",
"            ......................................          ",
"             .....................................          ",
"                                                            ",
"                                                            ",
"                                                            ",
"                                                            ",
"                                                            ",
"                                                            ",
"                                                            ",
"                                                            "
};
