/* XPM */
static char *whiteBishop1721964319[] = {
/* columns rows colors chars-per-pixel */
"60 60 150 2 ",
"   c None",
".  c black",
"X  c #010101",
"o  c #020202",
"O  c gray1",
"+  c #040404",
"@  c gray2",
"#  c #060606",
"$  c #070707",
"%  c gray3",
"&  c #090909",
"*  c gray4",
"=  c #0C0C0C",
"-  c gray5",
";  c #0E0E0E",
":  c gray6",
">  c #101010",
",  c #111111",
"<  c gray7",
"1  c #131313",
"2  c gray8",
"3  c #161616",
"4  c gray9",
"5  c #181818",
"6  c #191919",
"7  c gray10",
"8  c #1D1D1D",
"9  c #1E1E1E",
"0  c gray12",
"q  c #202020",
"w  c #232323",
"e  c gray14",
"r  c #252525",
"t  c #282828",
"y  c gray16",
"u  c #2A2A2A",
"i  c #2C2C2C",
"p  c #2F2F2F",
"a  c gray19",
"s  c #313131",
"d  c #343434",
"f  c #353535",
"g  c gray21",
"h  c gray22",
"j  c #393939",
"k  c #3A3A3A",
"l  c #3C3C3C",
"z  c gray24",
"x  c #3F3F3F",
"c  c gray25",
"v  c #414141",
"b  c gray26",
"n  c #434343",
"m  c #444444",
"M  c gray27",
"N  c #464646",
"B  c gray28",
"V  c #494949",
"C  c #4B4B4B",
"Z  c #4C4C4C",
"A  c #515151",
"S  c gray32",
"D  c #555555",
"F  c #565656",
"G  c gray35",
"H  c #5A5A5A",
"J  c gray36",
"K  c #5D5D5D",
"L  c #5F5F5F",
"P  c #606060",
"I  c #626262",
"U  c gray39",
"Y  c gray40",
"T  c #686868",
"R  c #6C6C6C",
"E  c gray43",
"W  c #6F6F6F",
"Q  c #727272",
"!  c #747474",
"~  c gray46",
"^  c gray47",
"/  c #7B7B7B",
"(  c #7C7C7C",
")  c #7E7E7E",
"_  c #818181",
"`  c gray51",
"'  c #838383",
"]  c gray52",
"[  c gray53",
"{  c #888888",
"}  c #8B8B8B",
"|  c #8D8D8D",
" . c #8E8E8E",
".. c gray56",
"X. c #909090",
"o. c #9D9D9D",
"O. c gray62",
"+. c #9F9F9F",
"@. c #A2A2A2",
"#. c gray64",
"$. c #A4A4A4",
"%. c gray65",
"&. c #A7A7A7",
"*. c #A9A9A9",
"=. c #AAAAAA",
"-. c gray67",
";. c #ACACAC",
":. c #AFAFAF",
">. c #B1B1B1",
",. c #B4B4B4",
"<. c gray71",
"1. c #B6B6B6",
"2. c #BBBBBB",
"3. c #BCBCBC",
"4. c gray74",
"5. c gray75",
"6. c #C0C0C0",
"7. c #C3C3C3",
"8. c gray77",
"9. c #C6C6C6",
"0. c #CACACA",
"q. c #CECECE",
"w. c #D0D0D0",
"e. c LightGray",
"r. c gray83",
"t. c #D5D5D5",
"y. c gray84",
"u. c #D7D7D7",
"i. c #D8D8D8",
"p. c #DADADA",
"a. c #DDDDDD",
"s. c gray87",
"d. c #DFDFDF",
"f. c gray89",
"g. c #E4E4E4",
"h. c #E7E7E7",
"j. c gray91",
"k. c #EAEAEA",
"l. c #ECECEC",
"z. c gray93",
"x. c #EFEFEF",
"c. c gray95",
"v. c #F4F4F4",
"b. c gray96",
"n. c gray97",
"m. c #F8F8F8",
"M. c #FBFBFB",
"N. c #FDFDFD",
"B. c #FEFEFE",
"V. c white",
/* pixels */
"                                                                                                                        ",
"                                                                                                                        ",
"                                                                                                                        ",
"                                                                                                                        ",
"                                                                                                                        ",
"                                                                                                                        ",
"                                                                                                                        ",
"                                                          . . . .                                                       ",
"                                                        . . e i . .                                                     ",
"                                                      . . / V.V.%.. .                                                   ",
"                                                      . 5 V.V.V.V.n .                                                   ",
"                                                      . 0 V.V.V.V.M .                                                   ",
"                                                      . . | V.V.1.. .                                                   ",
"                                                        . . k n @ . .                                                   ",
"                                                        . . . . . .                                                     ",
"                                                    . . . . t g . . . .                                                 ",
"                                                  . . . n 2.V.V.q.D . . .                                               ",
"                                                . . g 8.V.V.V.V.V.V.p.C . .                                             ",
"                                              . . H n.V.V.V.V.V.V.V.V.V.( . . .                                         ",
"                                            . . ] V.V.V.V.V.V.V.V.V.V.V.V.-.% . .                                       ",
"                                          . . O.V.V.V.V.V.V.Y M V.V.V.V.V.V.8.. .                                       ",
"                                        . . D V.V.V.V.V.V.V.5 . g.V.V.V.V.V.V./ . .                                     ",
"                                        . 5 x.V.V.V.V.V.V.V.4 . k.V.V.V.V.V.V.M.g . .                                   ",
"                                      . . O.V.V.V.V.M.' L L % . D P R n.V.V.V.V.8.. .                                   ",
"                                      . @ x.V.V.V.V.s.. . . . . . . . 1.V.V.V.V.V.w .                                   ",
"                                      . C V.V.V.V.V.V.4.O.@.; . X.O.1.V.V.V.V.V.V.! . .                                 ",
"                                    . . ' V.V.V.V.V.V.V.V.V.4 . g.V.V.V.V.V.V.V.V.-.. .                                 ",
"                                    . . ] V.V.V.V.V.V.V.V.V.0 . k.V.V.V.V.V.V.V.V.;.. .                                 ",
"                                    . . } V.V.V.V.V.V.V.V.V.%.] V.V.V.V.V.V.V.V.V.1.. .                                 ",
"                                      . L V.V.V.V.V.V.V.V.V.V.V.V.V.V.V.V.V.V.V.V.] . .                                 ",
"                                      . > M.V.V.V.V.V.V.V.V.V.V.V.V.V.V.V.V.V.V.V.s .                                   ",
"                                      . . | V.V.V.V.V.V.V.V.V.V.V.V.V.V.V.V.V.V.4.. .                                   ",
"                                        . @ 4.V.V.V.V.V.V.V.V.V.V.V.V.V.V.V.V.s.4 .                                     ",
"                                        . . % Q k.V.V.V.V.V.V.V.V.V.V.V.V.n.] > . .                                     ",
"                                          . . . . @ @ % % % @ @ @ % @ % @ . . . .                                       ",
"                                            . . . . . . . . . . . . . . . . . .                                         ",
"                                          . . ; >.M.n.n.n.n.n.n.M.n.n.n.n.0.0 . .                                       ",
"                                          . . 4.V.V.V.V.V.V.V.V.V.V.V.V.V.V.s.; .                                       ",
"                                        . . Y V.V.V.V.V.V.V.V.V.V.V.V.V.V.V.V.| . .                                     ",
"                                        . . n L L L L L L L L L L L L L L L L S . .                                     ",
"                                        . . . . . . . . . . . . . . . . . . . . . .                                     ",
"                                        . > @.O.O.O.@.O.O.O.@.O.O.O.@.O.O.@.O.O.t .                                     ",
"                                        . @ 6.V.V.V.V.V.V.V.V.V.V.V.V.V.V.V.V.e.4 .                                     ",
"                                        . . . S -.x.V.V.V.V.V.V.V.V.V.V.c.1.Y @ . .                                     ",
"                                          . . . . . % e n L ! ( P M t ; . . . . .                                       ",
"                                                . . . . . . . . . . . . . .                                             ",
"                                                  . . . . . . @ . . . . .                                               ",
"                        . . . . . . . . . . . . . . . . > L p.g.R 0 . . . . . . . . . . . . . . . .                     ",
"                    . . . . . . > w t i g x M L ! } @.0.V.V.V.V.V.V.t.%.| / P C x g i t e 4 . . . . .                   ",
"                  . . ; R -.q.x.V.V.V.V.V.V.V.V.V.V.V.V.f.-.! R @.p.V.V.V.V.V.V.V.V.V.V.V.V.n.e.>.H . . .               ",
"                . . 0 p.0.%.} T C k k x n M M n n k k 5 . . . . . . > k x x n M M n x x k M P ' @.8.%.> . .             ",
"                . . . . . . . . . . . . . . . . . . . . . .     . . . . . . . . . . . . . . . . . . . . . .             ",
"                    . . . . .                                                                 . . . . . .               ",
"                                                                                                                        ",
"                                                                                                                        ",
"                                                                                                                        ",
"                                                                                                                        ",
"                                                                                                                        ",
"                                                                                                                        ",
"                                                                                                                        "
};
