/* XPM */
static char *whiteKnight1721964319[] = {
/* columns rows colors chars-per-pixel */
"60 60 136 2 ",
"   c None",
".  c black",
"X  c #010101",
"o  c #020202",
"O  c gray1",
"+  c #040404",
"@  c gray2",
"#  c #070707",
"$  c #090909",
"%  c #0B0B0B",
"&  c #0C0C0C",
"*  c #0E0E0E",
"=  c gray7",
"-  c gray8",
";  c #151515",
":  c gray9",
">  c #181818",
",  c #191919",
"<  c gray10",
"1  c #1B1B1B",
"2  c gray11",
"3  c gray12",
"4  c #232323",
"5  c #282828",
"6  c #2A2A2A",
"7  c #2C2C2C",
"8  c gray18",
"9  c #2F2F2F",
"0  c gray19",
"q  c #313131",
"w  c #323232",
"e  c #353535",
"r  c gray21",
"t  c #373737",
"y  c #3C3C3C",
"u  c gray24",
"i  c gray25",
"p  c #444444",
"a  c gray29",
"s  c #4B4B4B",
"d  c gray30",
"f  c #515151",
"g  c gray32",
"h  c #535353",
"j  c gray33",
"k  c #585858",
"l  c gray35",
"z  c #5A5A5A",
"x  c #5B5B5B",
"c  c gray36",
"v  c gray37",
"b  c gray39",
"n  c #676767",
"m  c #686868",
"M  c #6A6A6A",
"N  c gray42",
"B  c #6C6C6C",
"V  c gray44",
"C  c #727272",
"Z  c gray45",
"A  c #747474",
"S  c gray46",
"D  c #767676",
"F  c #797979",
"G  c gray50",
"H  c gray51",
"J  c #838383",
"K  c gray53",
"L  c #888888",
"P  c #898989",
"I  c gray54",
"U  c gray55",
"Y  c #8E8E8E",
"T  c gray56",
"R  c gray57",
"E  c #929292",
"W  c #939393",
"Q  c #979797",
"!  c #989898",
"~  c #9A9A9A",
"^  c #9B9B9B",
"/  c #9D9D9D",
"(  c gray62",
")  c #9F9F9F",
"_  c gray63",
"`  c #A2A2A2",
"'  c #A5A5A5",
"]  c gray65",
"[  c gray66",
"{  c #A9A9A9",
"}  c #ACACAC",
"|  c gray68",
" . c #AEAEAE",
".. c gray69",
"X. c #B2B2B2",
"o. c gray70",
"O. c gray72",
"+. c #B9B9B9",
"@. c #BCBCBC",
"#. c gray74",
"$. c gray75",
"%. c #C0C0C0",
"&. c gray77",
"*. c #C5C5C5",
"=. c gray78",
"-. c gray79",
";. c #CDCDCD",
":. c #CECECE",
">. c gray82",
",. c #D2D2D2",
"<. c gray83",
"1. c gray85",
"2. c #DADADA",
"3. c gainsboro",
"4. c #DDDDDD",
"5. c #DFDFDF",
"6. c #E2E2E2",
"7. c gray89",
"8. c #E4E4E4",
"9. c gray90",
"0. c #EAEAEA",
"q. c gray92",
"w. c gray93",
"e. c gray94",
"r. c gray95",
"t. c #F3F3F3",
"y. c gray96",
"u. c #F6F6F6",
"i. c #F8F8F8",
"p. c #F9F9F9",
"a. c gray98",
"s. c #FBFBFB",
"d. c gray99",
"f. c #FDFDFD",
"g. c #FEFEFE",
"h. c white",
/* pixels */
"                                                                                                                        ",
"                                                                                                                        ",
"                                                                                                                        ",
"                                                                                                                        ",
"                                                                                                                        ",
"                                                                                                                        ",
"                                                                                                                        ",
"                                                                                                                        ",
"                                      . .               . . .                                                           ",
"                                    . . . .           . . . .                                                           ",
"                                    . . s . .       . . R 9 .                                                           ",
"                                    . . *.9 . . . . . U h.d . .                                                         ",
"                                    . . A ,.# . . . 9 h.h.B . . . . . .                                                 ",
"                                      . v h.,.K L U q.h.h.q.J h 4 . . . . .                                             ",
"                                    . . ] h.h.h.h.h.h.h.h.h.h.h.h.t.&.J 2 . . . .                                       ",
"                                    . > t.h.h.h.h.h.h.h.h.h.h.h.h.h.h.h.h...p . . .                                     ",
"                                  . . ] h.h.h.h.h.h.h.h.h.h.h.h.h.h.h.h.h.h.h.#.> . .                                   ",
"                                . . n h.K 9 5.h.h.h.h.h.h.h.h.h.h.h.h.h.h.h.h.h.w.s . .                                 ",
"                                . t s.N . . ..h.h.h.h.h.h.h.h.h.h.h.h.h.h.h.h.h.h.h.L . .                               ",
"                              . . -.-.. . . 6.h.h.h.h.h.h.h.h.h.h.h.h.h.h.h.h.h.h.h.h.V . .                             ",
"                            . . v h.R . . 9 h.h.h.h.h.h.h.h.h.h.h.h.h.h.h.h.h.h.h.h.h.s.i . .                           ",
"                            . % 6.h.F . 9 9.h.h.h.h.h.h.h.h.h.h.h.h.h.h.h.h.h.h.h.h.h.h.q.2 . .                         ",
"                          . . G h.h.9.R w.h.h.h.h.h.h.h.h.h.h.h.V N h.h.h.h.h.h.h.h.h.h.h.#.. .                         ",
"                          . > y.h.h.h.h.h.h.h.h.h.h.h.h.h.h.h.h.# . h.h.h.h.h.h.h.h.h.h.h.h.y .                         ",
"                        . . ` h.h.h.h.h.h.h.h.h.h.h.h.h.h.h.h.,.. > h.h.h.h.h.h.h.h.h.h.h.h.O.. .                       ",
"                        . q h.h.h.h.h.h.h.h.h.h.h.h.h.h.h.h.h.x . n h.h.h.h.h.h.h.h.h.h.h.h.h.6 .                       ",
"                      . . ..h.h.h.h.h.h.h.h.h.h.h.h.h.h.h.h./ . . 5.h.h.h.h.h.h.h.h.h.h.h.h.h./ . .                     ",
"                      . t h.h.h.h.h.h.h.h.h.h.h.h.h.h.h.h.#.# . % h.h.h.h.h.h.h.h.h.h.h.h.h.h.s.= .                     ",
"                    . . O.h.h.h.h.h.h.h.h.h.h.h.h.h.h.h.2.- . . # h.h.h.h.h.h.h.h.h.h.h.h.h.h.h.h .                     ",
"                    . y h.h.h.h.h.h.h.h.h.h.h.h.h.h.h.-.> . . . . s.h.h.h.h.h.h.h.h.h.h.h.h.h.h.R . .                   ",
"                  . . @.h.h.h.h.h.h.h.h.h.h.h.h.h.h.^ # . .   . 6 h.h.h.h.h.h.h.h.h.h.h.h.h.h.h.<.. .                   ",
"                  . 2 h.:.*.h.h.h.h.h.h.h.h.h.h.s.b . . .     . x h.h.h.h.h.h.h.h.h.h.h.h.h.h.h.h.> .                   ",
"                . . V *.. . { h.h.h.h.h.h.h.h.6.t . .       . . L h.h.h.h.h.h.h.h.h.h.h.h.h.h.h.h.j .                   ",
"                . . *.... . R h.h.h.h.h.h.h.#.- . .         . . @.h.h.h.h.h.h.h.h.h.h.h.h.h.h.h.h.^ . .                 ",
"                . . :.s.U K y.h.h.h.h.h.h.R . . .           . % w.h.h.h.h.h.h.h.h.h.h.h.h.h.h.h.h.#.. .                 ",
"                . . ` h.h.h.w./ :.h.h.h.V . . .           . . A h.h.h.h.h.h.h.h.h.h.h.h.h.h.h.h.h.5.. .                 ",
"                  . V h.h.h.h . # t.h.x . .               . * q.h.h.h.h.h.h.h.h.h.h.h.h.h.h.h.h.h.s.. .                 ",
"                  . * &.h.h.4 . . 5.J . .               . . A h.h.h.h.h.h.h.h.h.h.h.h.h.h.h.h.h.h.h.> .                 ",
"                  . . # 5 q . . t } . .               . . q y.h.h.h.h.h.h.h.h.h.h.h.h.h.h.h.h.h.h.h.t .                 ",
"                    . . . . . . 4 # .               . . > 9.h.h.h.h.h.h.h.h.h.h.h.h.h.h.h.h.h.h.h.h.h .                 ",
"                              . . . .             . . % -.h.h.h.h.h.h.h.h.h.h.h.h.h.h.h.h.h.h.h.h.h.V .                 ",
"                                                . . # #.h.h.h.h.h.h.h.h.h.h.h.h.h.h.h.h.h.h.h.h.h.h.U . .               ",
"                                                . # ..h.h.h.h.h.h.h.h.h.h.h.h.h.h.h.h.h.h.h.h.h.h.h.R . .               ",
"                                              . . ] h.h.h.h.h.h.h.h.h.h.h.h.h.h.h.h.h.h.h.h.h.h.h.h.^ . .               ",
"                                            . . / h.h.h.h.h.h.h.h.h.h.h.h.h.h.h.h.h.h.h.h.h.h.h.h.h.^ . .               ",
"                                          . . x h.h.h.h.h.h.h.h.h.h.h.h.h.h.h.h.h.h.h.h.h.h.h.h.h.h./ . .               ",
"                                          . . 2.h.h.h.h.h.h.h.h.h.h.h.h.h.h.h.h.h.h.h.h.h.h.h.h.h.h.` . .               ",
"                                          . x h.h.h.h.h.h.h.h.h.h.h.h.h.h.h.h.h.h.h.h.h.h.h.h.h.h.h.] . .               ",
"                                        . . R h.h.h.h.h.h.h.h.h.h.h.h.h.h.h.h.h.h.h.h.h.h.h.h.h.h.h.{ . .               ",
"                                        . . @.h.h.h.h.h.h.h.h.h.h.h.h.h.h.h.h.h.h.h.h.h.h.h.h.h.h.h.} . .               ",
"                                        . . - 4 2 4 4 2 2 4 2 2 2 4 2 4 4 2 2 4 2 4 4 2 2 4 2 2 2 4 - . .               ",
"                                        . . . . . . . . . . . . . . . . . . . . . . . . . . . . . . . . .               ",
"                                                                                                                        ",
"                                                                                                                        ",
"                                                                                                                        ",
"                                                                                                                        ",
"                                                                                                                        ",
"                                                                                                                        ",
"                                                                                                                        ",
"                                                                                                                        "
};
