/* XPM */
static char *whiteKing1721964319[] = {
/* columns rows colors chars-per-pixel */
"60 60 196 2 ",
"   c None",
".  c black",
"X  c #010101",
"o  c #020202",
"O  c gray1",
"+  c #040404",
"@  c gray2",
"#  c #060606",
"$  c #070707",
"%  c #090909",
"&  c gray4",
"*  c #0B0B0B",
"=  c #0C0C0C",
"-  c gray5",
";  c #0E0E0E",
":  c gray6",
">  c #111111",
",  c gray7",
"<  c #131313",
"1  c gray8",
"2  c #161616",
"3  c gray9",
"4  c #181818",
"5  c #191919",
"6  c gray10",
"7  c #1B1B1B",
"8  c gray11",
"9  c #1D1D1D",
"0  c #1E1E1E",
"q  c gray12",
"w  c #202020",
"e  c gray13",
"r  c #222222",
"t  c #232323",
"y  c gray14",
"u  c gray15",
"i  c #282828",
"p  c gray16",
"a  c gray17",
"s  c #2D2D2D",
"d  c #2F2F2F",
"f  c #313131",
"g  c #323232",
"h  c #343434",
"j  c #353535",
"k  c gray21",
"l  c #373737",
"z  c #393939",
"x  c #3A3A3A",
"c  c gray23",
"v  c gray24",
"b  c #3F3F3F",
"n  c #414141",
"m  c gray26",
"M  c #434343",
"N  c #444444",
"B  c gray27",
"V  c #464646",
"C  c gray28",
"Z  c #484848",
"A  c #4B4B4B",
"S  c gray31",
"D  c #515151",
"F  c gray32",
"G  c #535353",
"H  c gray33",
"J  c #555555",
"K  c #565656",
"L  c gray34",
"P  c gray35",
"I  c #5B5B5B",
"U  c gray36",
"Y  c gray37",
"T  c #606060",
"R  c gray38",
"E  c gray39",
"W  c #646464",
"Q  c #656565",
"!  c gray40",
"~  c #686868",
"^  c DimGray",
"/  c #6A6A6A",
"(  c gray42",
")  c #6C6C6C",
"_  c #6D6D6D",
"`  c gray43",
"'  c #6F6F6F",
"]  c gray44",
"[  c #717171",
"{  c gray46",
"}  c #767676",
"|  c #777777",
" . c gray47",
".. c #7C7C7C",
"X. c gray49",
"o. c #808080",
"O. c #818181",
"+. c #838383",
"@. c #848484",
"#. c #868686",
"$. c gray53",
"%. c #888888",
"&. c #898989",
"*. c gray54",
"=. c gray55",
"-. c #8D8D8D",
";. c #8E8E8E",
":. c gray57",
">. c #929292",
",. c #939393",
"<. c #959595",
"1. c #979797",
"2. c gray60",
"3. c #9A9A9A",
"4. c #9B9B9B",
"5. c gray61",
"6. c #9D9D9D",
"7. c #9F9F9F",
"8. c gray63",
"9. c #A2A2A2",
"0. c #A4A4A4",
"q. c #A5A5A5",
"w. c gray65",
"e. c #A7A7A7",
"r. c gray66",
"t. c #A9A9A9",
"y. c #AAAAAA",
"u. c gray67",
"i. c #AEAEAE",
"p. c gray69",
"a. c #B1B1B1",
"s. c #B2B2B2",
"d. c #B4B4B4",
"f. c gray71",
"g. c #B6B6B6",
"h. c #B7B7B7",
"j. c #B9B9B9",
"k. c gray73",
"l. c #BBBBBB",
"z. c #BCBCBC",
"x. c gray",
"c. c #C0C0C0",
"v. c #C1C1C1",
"b. c gray76",
"n. c #C3C3C3",
"m. c gray77",
"M. c #C5C5C5",
"N. c #C6C6C6",
"B. c gray78",
"V. c #C8C8C8",
"C. c gray79",
"Z. c #CBCBCB",
"A. c gray80",
"S. c #CDCDCD",
"D. c gray81",
"F. c gray82",
"G. c #D2D2D2",
"H. c LightGray",
"J. c gray83",
"K. c #D5D5D5",
"L. c #D7D7D7",
"P. c #D8D8D8",
"I. c gray85",
"U. c gray86",
"Y. c gainsboro",
"T. c #DDDDDD",
"R. c gray87",
"E. c #DFDFDF",
"W. c #E1E1E1",
"Q. c #E2E2E2",
"!. c gray89",
"~. c #E4E4E4",
"^. c gray90",
"/. c #E6E6E6",
"(. c #E7E7E7",
"). c gray91",
"_. c #E9E9E9",
"`. c #EAEAEA",
"'. c gray92",
"]. c #ECECEC",
"[. c gray93",
"{. c #EFEFEF",
"}. c gray94",
"|. c #F1F1F1",
" X c gray95",
".X c #F3F3F3",
"XX c #F4F4F4",
"oX c gray96",
"OX c gray97",
"+X c #F9F9F9",
"@X c gray98",
"#X c #FBFBFB",
"$X c gray99",
"%X c #FDFDFD",
"&X c #FEFEFE",
"*X c white",
/* pixels */
"                                                                                                                        ",
"                                                                                                                        ",
"                                                                                                                        ",
"                                                                                                                        ",
"                                                                                                                        ",
"                                                                                                                        ",
"                                                                                                                        ",
"                                                            . .                                                         ",
"                                                            . .                                                         ",
"                                                      . . . . . . . .                                                   ",
"                                                      . . . . . . . .                                                   ",
"                                                            . .                                                         ",
"                                                            . .                                                         ",
"                                                            . .                                                         ",
"                                                            . .                                                         ",
"                                                        . . . . .                                                       ",
"                                                      . . e ] A . .                                                     ",
"                                                    . . m  X*X*Xr.. .                                                   ",
"                                                    . = ~.*X*X*X*X( . .                                                 ",
"                                                    . ` *X*X*X*X*XY.. .                                                 ",
"                          . . . . . . . .         . . 0.*X*X*X*X*X*X1 .       . . . . . . . . .                         ",
"                      . . . . 1 m j < . . . .     . . 3.*X*X*X*X*X*X% .   . . . . @ u m f % . . . .                     ",
"                    . . @ } ~.*X*X*X*X_.=.u . . . . . } *X*X*X*X*X_.. . . . @ J c.*X*X*X*X*XI.P . . .                   ",
"                    . 6 J.*X*X*X*X*X*X*X*X*Xs.6 . . . i *X*X*X*X*X9.. . . J ~.*X*X*X*X*X*X*X*X*XC.u . .                 ",
"                  . . k.*X*X*X*X*X*X*X*X*X*X*X].J . . . I.*X*X*X*Xe . % 6.*X*X*X*X*X*X*X*X*X*X*X*XI.1 . .               ",
"                . . ` *X*X*X*X*X*X*X*X*X*X*X*X*X*X&.. . U *X*X*X&.. % A.*X*X*X*X*X*X*X*X*X*X*X*X*X*XN.@ .               ",
"                . . W.*X*X*X*X*X*X*X*X*X*X*X*X*X*X*XX.. . k.*Xk.. . r.*X*X*X*X*X*X*X*X*X*X*X*X*X*X*X*XF .               ",
"                . i *X*X*X*X*X*X*X*X*X*X*X*X*X*X*X*X*X` . 6  Xs .  .*X*X*X*X*X*X*X*X*X*X*X*X*X*X*X*X*X3.. .             ",
"                . ! *X*X*X*X*X*X*X*X*X*X*X*X*X*X*X*X*X*Xj . v . 6 OX*X*X*X*X*X*X*X*X*X*X*X*X*X*X*X*X*XC.. .             ",
"                . P *X*X*X*X*X*X*X*X*X*X*X*X*X*X*X*X*X*XA.. . . =.*X*X*X*X*X*X*X*X*X*X*X*X*X*X*X*X*X*Xs.. .             ",
"                . m *X*X*X*X*X*X*X*X*X*X*X*X*X*X*X*X*X*X*X! . 1 OX*X*X*X*X*X*X*X*X*X*X*X*X*X*X*X*X*X*X@.. .             ",
"                . . W.*X*X*X*X*X*X*X*X*X*X*X*X*X*X*X*X*X*Xg.. A *X*X*X*X*X*X*X*X*X*X*X*X*X*X*X*X*X*X*Xe .               ",
"                . . ] *X*X*X*X*X*X*X*X*X*X*X*X*X*X*X*X*X*Xg.. C *X*X*X*X*X*X*X*X*X*X*X*X*X*X*X*X*X*X6.. .               ",
"                  . @ c.*X*X*X*X*X*X*X*X*X*X*X*X*X*X*X*X*Xk.. C *X*X*X*X*X*X*X*X*X*X*X*X*X*X*X*X*XJ.= .                 ",
"                  . . 1 J.*X*X*X*X*X*X*X*X*X*X*X*X*X*X*X*Xg.. A *X*X*X*X*X*X*X*X*X*X*X*X*X*X*X*X~.9 . .                 ",
"                    . . = g.*X*X*X*X*X*X*X*X*X*X+XW.N.i.1.T . f r.N.Y.OX*X*X*X*X*X*X*X*X*X*X*XN.6 . .                   ",
"                      . . . =.*X*X*X*X Xs.( f 1 . . . . . . . . . . . . < i ! r.].*X*X*X*X*X3.@ . .                     ",
"                          . . C J.s.C @ . . . . @ 9 j S ( o.o.( F x e @ . . . . . v 0.+X XT . . .                       ",
"                            . . @ . . @ x o.N._.*X*X*X*X*X*X*X*X*X*X*X*X].A.&.m % . . 1 = . .                           ",
"                              . . 9 &.].*X*X*X*X*X*X*X*X*X*X*X*X*X*X*X*X*X*X*X*XOX1.i . . .                             ",
"                              . . ].*X*X*X*XJ.x.9.&.] J v e e v F ` @.9.k.H.*X*X*X*X*X% .                               ",
"                              . .  X_.6.P 1 . . . . . . . . . . . . . . . . = F 1.W.*X< .                               ",
"                              . . U @ . . . 9 m U } =.r.c.I.Y.c.r.>.} U C e . . . @ J = .                               ",
"                              . . . . A >.I.*X*X*X*X*X*X*X*X*X*X*X*X*X*X*X*XW.3.F @ . . .                               ",
"                              . . ( Y.*X*X*X*X*X*X*X*X*X].H.H._.*X*X*X*X*X*X*X*X*X_.o.. .                               ",
"                              . .  X*X*X+Xc.@.` F x e @ . . . . @ 9 j S ( o.k.+X*X*X*X< .                               ",
"                              . . ~.6.F = . . . . . . . 6 f j 6 @ . . . . . . % C >. X= .                               ",
"                              . . < . . . f } 3.g.A.~.*X*X*X*X*X*X_.A.g.6.X.v . . . = @ .                               ",
"                              . . . s 6._.*X*X*X*X*X*X*X*X*X*X*X*X*X*X*X*X*X*X].r.x . . .                               ",
"                              . . . @ T g.+X*X*X*X*X*X*X*X*X*X*X*X*X*X*X*X*X*Xc.` = . . .                               ",
"                                  . . . . = J @.9.c.Y.*X*X*X*X*X+XW.c.r.&.T 1 . . . .                                   ",
"                                        . . . . . . . . 6 j x 9 @ . . . . . . . .                                       ",
"                                              . . . . . . . . . . . . . .                                               ",
"                                                                                                                        ",
"                                                                                                                        ",
"                                                                                                                        ",
"                                                                                                                        ",
"                                                                                                                        ",
"                                                                                                                        ",
"                                                                                                                        "
};
