/* XPM */
static char *whitePawn1721964319[] = {
/* columns rows colors chars-per-pixel */
"60 60 93 2 ",
"   c None",
".  c black",
"X  c #010101",
"o  c #020202",
"O  c #040404",
"+  c #060606",
"@  c #070707",
"#  c #090909",
"$  c #0B0B0B",
"%  c #0C0C0C",
"&  c gray5",
"*  c #0E0E0E",
"=  c gray6",
"-  c #111111",
";  c gray7",
":  c gray8",
">  c #161616",
",  c gray10",
"<  c #1B1B1B",
"1  c gray11",
"2  c gray13",
"3  c #222222",
"4  c #232323",
"5  c gray14",
"6  c #252525",
"7  c gray16",
"8  c #2A2A2A",
"9  c #2C2C2C",
"0  c gray18",
"q  c #2F2F2F",
"w  c #343434",
"e  c #353535",
"r  c #3C3C3C",
"t  c gray24",
"y  c #3E3E3E",
"u  c #414141",
"i  c #4B4B4B",
"p  c #505050",
"a  c gray32",
"s  c #606060",
"d  c #656565",
"f  c DimGray",
"g  c #6F6F6F",
"h  c #777777",
"j  c #7B7B7B",
"k  c gray49",
"l  c #7E7E7E",
"z  c gray51",
"x  c #8D8D8D",
"c  c #929292",
"v  c gray60",
"b  c gray64",
"n  c gray66",
"m  c #A9A9A9",
"M  c gray67",
"N  c #AEAEAE",
"B  c #B2B2B2",
"V  c gray70",
"C  c #B4B4B4",
"Z  c #BBBBBB",
"A  c gray75",
"S  c #C0C0C0",
"D  c gray76",
"F  c #C6C6C6",
"G  c gray79",
"H  c #CBCBCB",
"J  c gray81",
"K  c #D0D0D0",
"L  c LightGray",
"P  c gray83",
"I  c #D7D7D7",
"U  c #D8D8D8",
"Y  c #DADADA",
"T  c gainsboro",
"R  c #DDDDDD",
"E  c #DFDFDF",
"W  c gray88",
"Q  c gray89",
"!  c gray90",
"~  c #E7E7E7",
"^  c gray91",
"/  c #E9E9E9",
"(  c #EAEAEA",
")  c gray92",
"_  c #EEEEEE",
"`  c #EFEFEF",
"'  c gray95",
"]  c #F4F4F4",
"[  c #F8F8F8",
"{  c gray98",
"}  c gray99",
"|  c #FEFEFE",
" . c white",
/* pixels */
"                                                                                                                        ",
"                                                                                                                        ",
"                                                                                                                        ",
"                                                                                                                        ",
"                                                                                                                        ",
"                                                                                                                        ",
"                                                                                                                        ",
"                                                                                                                        ",
"                                                                                                                        ",
"                                                                                                                        ",
"                                                        . . . . . . .                                                   ",
"                                                      . . + t f u # . .                                                 ",
"                                                    . . w I  . . .W t . .                                               ",
"                                                    . ; ~  . . . . .' , .                                               ",
"                                                  . . k  . . . . . . .x . .                                             ",
"                                                  . . B  . . . . . . .S . .                                             ",
"                                                  . . N  . . . . . . .S . .                                             ",
"                                                  . . f  . . . . . . .k . .                                             ",
"                                                    . + W  . . . . ./ % .                                               ",
"                                                  . . % S  . . . . .K ; . .                                             ",
"                                                . . 9 U  . . . . . . .E w . .                                           ",
"                                              . . 9 ]  . . . . . . . . .[ t . .                                         ",
"                                              . % E  . . . . . . . . . . ./ > .                                         ",
"                                            . . g  . . . . . . . . . . . . .k . .                                       ",
"                                            . . K  . . . . . . . . . . . . .~ . .                                       ",
"                                            . . [  . . . . . . . . . . . . . .; .                                       ",
"                                            . ;  . . . . . . . . . . . . . . .5 .                                       ",
"                                            . . E  . . . . . . . . . . . . ._ . .                                       ",
"                                            . . b  . . . . . . . . . . . . .C . .                                       ",
"                                              . d  . . . . . . . . . . . . .j . .                                       ",
"                                              . + G  . . . . . . . . . . .U % .                                         ",
"                                              . . 1 /  . . . . . . . . .' 7 . .                                         ",
"                                                . . t [  . . . . . . . .p . .                                           ",
"                                                . . + C  . . . . . . .F + . .                                           ",
"                                            . . . u I  . . . . . . . . .E i . . .                                       ",
"                                          . . , n  . . . . . . . . . . . . .C 3 . .                                     ",
"                                        . . 1 W  . . . . . . . . . . . . . . ./ 5 . .                                   ",
"                                      . . % I  . . . . . . . . . . . . . . . . .E > . .                                 ",
"                                      . + S  . . . . . . . . . . . . . . . . . . .G % .                                 ",
"                                    . . x  . . . . . . . . . . . . . . . . . . . . .b . .                               ",
"                                    . ; ]  . . . . . . . . . . . . . . . . . . . . . .1 .                               ",
"                                  . . k  . . . . . . . . . . . . . . . . . . . . . . .c . .                             ",
"                                  . # /  . . . . . . . . . . . . . . . . . . . . . . .] ; .                             ",
"                                . . f  . . . . . . . . . . . . . . . . . . . . . . . . .k . .                           ",
"                                . . U  . . . . . . . . . . . . . . . . . . . . . . . . ./ . .                           ",
"                                . ,  . . . . . . . . . . . . . . . . . . . . . . . . . . .7 .                           ",
"                                . p  . . . . . . . . . . . . . . . . . . . . . . . . . . .s .                           ",
"                              . . z  . . . . . . . . . . . . . . . . . . . . . . . . . . .c . .                         ",
"                              . . v  . . . . . . . . . . . . . . . . . . . . . . . . . . .n . .                         ",
"                              . . N  . . . . . . . . . . . . . . . . . . . . . . . . . . .Z . .                         ",
"                              . . 3 9 w w 9 9 w 9 w w 9 9 9 w 9 9 w 9 w 9 w 9 9 9 w w 9 9 5 . .                         ",
"                              . . . . . . . . . . . . . . . . . . . . . . . . . . . . . . . . .                         ",
"                                                                                                                        ",
"                                                                                                                        ",
"                                                                                                                        ",
"                                                                                                                        ",
"                                                                                                                        ",
"                                                                                                                        ",
"                                                                                                                        ",
"                                                                                                                        "
};
